<?xml version="1.0" encoding="utf-8"?>
<!-- Generator: Adobe Illustrator 28.2.0, SVG Export Plug-In . SVG Version: 6.00 Build 0)  -->
<svg version="1.1" xmlns="http://www.w3.org/2000/svg" xmlns:xlink="http://www.w3.org/1999/xlink"
     viewBox="60 235 721.89 160.28" xml:space="preserve">
<style type="text/css">
    .st0{fill:#FFFFFF;}
    .st1{fill:none;}
</style>
<g id="Layer_1">
	<g>
		<g>
			<g>
				<path class="st0" d="M225.27,332.44v-95.35h20.05v77.89h24.05v17.47H225.27z"/>
				<path class="st0" d="M245.23,237.09v95.35h-20.05v-77.89H61.18v-17.47H245.23z"/>
				<path class="st0" d="M339.38,332.44h-20.19l-3.29-19.33h-17.9l-3.16,19.33h-20.18l20.75-95.35h23.2L339.38,332.44z
					 M301.01,295.65h12.02l-6.01-36.08L301.01,295.65z"/>
				<path class="st0" d="M372.88,254.55v77.89h-20.04v-77.89h-17.47v-17.47h54.97v17.47H372.88z"/>
				<path class="st0" d="M453.91,304.52c0,4.1-0.43,7.97-1.29,11.59c-0.85,3.64-2.41,6.78-4.65,9.45c-2.25,2.68-5.25,4.78-9.02,6.3
					c-3.77,1.53-8.52,2.28-14.25,2.28c-5.72,0-10.47-0.76-14.25-2.28c-3.76-1.53-6.77-3.62-9.02-6.3c-2.24-2.67-3.79-5.81-4.65-9.45
					c-0.86-3.62-1.29-7.49-1.29-11.59V265c0-4.1,0.43-7.97,1.29-11.59c0.86-3.62,2.41-6.78,4.65-9.45c2.25-2.67,5.25-4.78,9.02-6.3
					c3.77-1.53,8.53-2.28,14.25-2.28c5.73,0,10.47,0.76,14.25,2.28c3.76,1.53,6.77,3.64,9.02,6.3c2.24,2.67,3.8,5.83,4.65,9.45
					c0.86,3.62,1.29,7.49,1.29,11.59V304.52z M433.87,263c0-3.15-0.58-5.63-1.72-7.45c-1.14-1.81-3.62-2.71-7.45-2.71
					c-3.82,0-6.3,0.91-7.45,2.71c-1.14,1.82-1.71,4.3-1.71,7.45v43.53c0,3.15,0.57,5.63,1.71,7.45c1.14,1.82,3.62,2.71,7.45,2.71
					c3.82,0,6.3-0.9,7.45-2.71c1.14-1.82,1.72-4.3,1.72-7.45V263z"/>
				<path class="st0" d="M485.42,332.44h-20.05v-95.35h32.08c9.16,0,15.74,1.93,19.75,5.8c4.02,3.87,6.02,10.04,6.02,18.54v12.02
					c0,4.68-0.99,8.85-2.94,12.54c-1.96,3.67-4.94,6.56-8.95,8.66l17.03,37.8h-22.34l-14.6-34.65h-6.01V332.44z M485.42,280.62h10.3
					c2.48,0,4.35-0.57,5.58-1.72c1.25-1.14,1.86-3.05,1.86-5.72v-11.45c0-2.68-0.62-4.58-1.86-5.73c-1.24-1.14-3.1-1.71-5.58-1.71
					h-10.3V280.62z"/>
				<path class="st0" d="M556,332.44h-20.05v-95.35h32.08c9.16,0,15.74,1.93,19.75,5.8c4.02,3.87,6.02,10.04,6.02,18.54v12.02
					c0,4.68-0.99,8.85-2.94,12.54c-1.96,3.67-4.94,6.56-8.95,8.66l17.03,37.8h-22.34l-14.6-34.65H556V332.44z M556,280.62h10.3
					c2.48,0,4.35-0.57,5.58-1.72c1.25-1.14,1.86-3.05,1.86-5.72v-11.45c0-2.68-0.62-4.58-1.86-5.73c-1.24-1.14-3.1-1.71-5.58-1.71
					H556V280.62z"/>
				<path class="st0" d="M606.53,332.44v-95.35h174.18v17.47H626.57v21.05h26.34v17.47h-26.34v21.9h28.92v17.47H606.53z"/>
			</g>
			<g>
				<path class="st0" d="M247.57,386.32c0.07,0.28,0.05,0.54-0.08,0.78c-0.12,0.24-0.31,0.41-0.59,0.48
					c-0.28,0.07-0.55,0.03-0.79-0.1s-0.4-0.35-0.47-0.63c-0.17-0.59-0.35-1.22-0.52-1.89c-0.17-0.59-0.36-1.28-0.55-2.07
					c-0.2-0.78-0.43-1.67-0.71-2.63h-11.2c-0.28,0.97-0.52,1.85-0.73,2.63c-0.21,0.79-0.41,1.48-0.58,2.07
					c-0.17,0.66-0.35,1.29-0.52,1.89c-0.07,0.28-0.21,0.49-0.44,0.63c-0.22,0.14-0.48,0.17-0.76,0.1s-0.49-0.23-0.63-0.48
					c-0.14-0.24-0.17-0.5-0.1-0.78l8.38-30.36c0.17-0.49,0.5-0.73,0.99-0.73c0.49,0,0.8,0.24,0.94,0.73L247.57,386.32z
					 M243.28,378.25c-0.45-1.64-0.93-3.37-1.44-5.18c-0.5-1.82-0.98-3.55-1.43-5.23s-0.87-3.2-1.26-4.58
					c-0.38-1.39-0.69-2.47-0.9-3.27c-0.21,0.8-0.5,1.89-0.89,3.27c-0.38,1.37-0.8,2.9-1.26,4.58c-0.45,1.68-0.93,3.41-1.43,5.23
					c-0.51,1.82-0.99,3.54-1.44,5.18H243.28z"/>
				<path class="st0" d="M268.11,356c0.9,0.38,1.67,0.91,2.31,1.55s1.17,1.41,1.55,2.31c0.37,0.89,0.57,1.84,0.57,2.84v2.94
					c0,1.68-0.48,3.15-1.44,4.39c-0.96,1.26-2.19,2.12-3.68,2.57l5.07,13.61c0.1,0.28,0.1,0.54,0,0.78
					c-0.1,0.24-0.29,0.42-0.57,0.52s-0.54,0.1-0.78,0c-0.24-0.1-0.42-0.29-0.52-0.57l-5.24-14.03h-0.1h-5.28v13.66
					c0,0.66-0.34,1-1,1c-0.28,0-0.51-0.1-0.7-0.29c-0.2-0.2-0.29-0.43-0.29-0.71v-30.15c0-0.28,0.09-0.51,0.29-0.7
					c0.19-0.2,0.42-0.29,0.7-0.29h6.28C266.27,355.43,267.23,355.61,268.11,356z M270.55,362.7c0-0.72-0.14-1.42-0.42-2.06
					c-0.28-0.64-0.65-1.2-1.12-1.68c-0.48-0.47-1.04-0.84-1.68-1.12c-0.65-0.28-1.34-0.42-2.07-0.42h-5.28v13.5h5.28
					c0.73,0,1.42-0.14,2.07-0.42c0.64-0.28,1.2-0.65,1.68-1.13c0.47-0.47,0.84-1.03,1.12-1.67c0.28-0.65,0.42-1.34,0.42-2.07V362.7z
					"/>
				<path class="st0" d="M295.95,355.43c0.28,0,0.52,0.09,0.73,0.29c0.21,0.19,0.31,0.42,0.31,0.7s-0.1,0.52-0.31,0.71
					c-0.21,0.19-0.45,0.29-0.73,0.29h-5.76v29.15c0,0.28-0.1,0.51-0.31,0.71c-0.21,0.19-0.45,0.29-0.73,0.29s-0.52-0.1-0.71-0.29
					c-0.2-0.2-0.29-0.43-0.29-0.71v-29.15h-5.8c-0.28,0-0.52-0.1-0.71-0.29c-0.2-0.19-0.29-0.43-0.29-0.71s0.09-0.51,0.29-0.7
					c0.19-0.2,0.43-0.29,0.71-0.29H295.95z"/>
				<path class="st0" d="M335.04,353.18c0.28,0.1,0.48,0.28,0.58,0.52c0.1,0.24,0.1,0.5,0,0.78l-12.57,34.55
					c-0.07,0.28-0.22,0.48-0.47,0.58c-0.24,0.1-0.51,0.1-0.79,0c-0.28-0.1-0.47-0.28-0.57-0.52c-0.1-0.24-0.13-0.51-0.05-0.79
					l12.56-34.55c0.1-0.24,0.28-0.42,0.52-0.55C334.5,353.09,334.76,353.07,335.04,353.18z"/>
				<path class="st0" d="M369.22,355.43c1.01,0,1.97,0.19,2.85,0.57c0.9,0.38,1.67,0.91,2.31,1.55s1.17,1.41,1.55,2.31
					c0.37,0.89,0.57,1.84,0.57,2.84v17.38c0,1.01-0.2,1.97-0.57,2.85c-0.38,0.89-0.91,1.65-1.55,2.31
					c-0.64,0.64-1.41,1.15-2.31,1.54c-0.89,0.38-1.84,0.58-2.85,0.58h-6.28c-0.66,0-0.99-0.34-0.99-1v-29.94
					c0-0.66,0.33-0.99,0.99-0.99H369.22z M374.09,360.64c-0.28-0.64-0.65-1.2-1.12-1.68c-0.48-0.47-1.04-0.84-1.68-1.12
					c-0.65-0.28-1.34-0.42-2.07-0.42h-5.28v27.95h5.28c0.73,0,1.42-0.14,2.07-0.42c0.64-0.28,1.2-0.65,1.68-1.13
					c0.47-0.47,0.84-1.03,1.12-1.67c0.28-0.65,0.42-1.34,0.42-2.07V362.7C374.51,361.98,374.37,361.28,374.09,360.64z"/>
				<path class="st0" d="M388.54,386.36v-29.94c0-0.66,0.33-0.99,0.99-0.99H400c0.66,0,0.99,0.33,0.99,0.99s-0.33,1-0.99,1h-9.47
					v12.46h8.42c0.66,0,0.99,0.33,0.99,0.99c0,0.66-0.33,1-0.99,1h-8.42v13.5H400c0.66,0,0.99,0.33,0.99,0.99c0,0.66-0.33,1-0.99,1
					h-10.47C388.86,387.36,388.54,387.03,388.54,386.36z"/>
				<path class="st0" d="M420.73,384.43c0.63-0.49,1.14-1.07,1.53-1.76c0.37-0.68,0.61-1.42,0.68-2.21c0.1-1.64-0.42-3.08-1.57-4.3
					l-8.32-8.59c-0.73-0.77-1.28-1.63-1.62-2.61c-0.35-0.98-0.49-1.99-0.42-3.04c0.07-1.01,0.35-1.98,0.86-2.9
					c0.5-0.93,1.15-1.7,1.96-2.33c0.84-0.63,1.77-1.06,2.81-1.28c1.03-0.23,2.04-0.24,3.05-0.03c1.01,0.21,1.95,0.62,2.81,1.21
					c0.85,0.59,1.54,1.34,2.06,2.25c0.28,0.59,0.16,1.06-0.36,1.41c-0.24,0.14-0.5,0.17-0.76,0.1c-0.27-0.07-0.47-0.22-0.61-0.47
					c-0.38-0.66-0.89-1.21-1.49-1.65c-0.62-0.43-1.3-0.73-2.07-0.91c-0.72-0.14-1.46-0.14-2.19,0.02c-0.73,0.15-1.4,0.48-1.99,0.97
					c-0.59,0.45-1.07,1.01-1.44,1.68c-0.36,0.66-0.58,1.36-0.65,2.1c-0.07,0.76,0.03,1.5,0.29,2.21c0.26,0.72,0.65,1.34,1.18,1.86
					l8.38,8.63c0.77,0.77,1.33,1.67,1.68,2.67c0.35,1.01,0.49,2.06,0.42,3.15c-0.07,1.08-0.37,2.1-0.9,3.04
					c-0.52,0.93-1.22,1.74-2.09,2.4c-0.87,0.66-1.84,1.12-2.89,1.36c-1.04,0.24-2.09,0.24-3.13,0c-1.08-0.21-2.06-0.63-2.94-1.26
					c-0.87-0.63-1.58-1.41-2.14-2.35c-0.14-0.24-0.17-0.5-0.1-0.76c0.07-0.27,0.24-0.47,0.52-0.61c0.24-0.14,0.49-0.17,0.73-0.1
					c0.24,0.07,0.45,0.23,0.63,0.48c0.84,1.43,2.06,2.32,3.66,2.67c0.8,0.17,1.6,0.16,2.37-0.02
					C419.4,385.26,420.1,384.92,420.73,384.43z"/>
				<path class="st0" d="M437.17,387.57c-0.28,0-0.51-0.1-0.7-0.29c-0.2-0.2-0.29-0.43-0.29-0.71v-30.36c0-0.28,0.09-0.51,0.29-0.7
					c0.19-0.2,0.42-0.29,0.7-0.29s0.52,0.09,0.73,0.29c0.21,0.19,0.31,0.42,0.31,0.7v30.36c0,0.28-0.1,0.51-0.31,0.71
					C437.69,387.47,437.45,387.57,437.17,387.57z"/>
				<path class="st0" d="M450.21,362.49c0-1.67,0.5-3.16,1.51-4.44c1.01-1.29,2.31-2.16,3.88-2.57c1.61-0.44,3.17-0.36,4.68,0.27
					c1.51,0.63,2.69,1.65,3.53,3.09c0.28,0.59,0.16,1.06-0.36,1.41c-0.24,0.14-0.5,0.17-0.76,0.1c-0.27-0.07-0.47-0.22-0.61-0.47
					c-0.59-1.05-1.44-1.79-2.56-2.25c-1.12-0.45-2.25-0.52-3.4-0.21c-1.15,0.28-2.1,0.9-2.83,1.85c-0.73,0.97-1.1,2.04-1.1,3.22
					v17.8c0,0.73,0.14,1.42,0.42,2.07c0.28,0.64,0.66,1.2,1.15,1.67c0.48,0.48,1.04,0.85,1.67,1.13c0.63,0.28,1.32,0.42,2.05,0.42
					c0.72,0,1.42-0.14,2.06-0.42c0.64-0.28,1.2-0.65,1.68-1.13c0.47-0.47,0.84-1.03,1.12-1.67c0.28-0.65,0.42-1.34,0.42-2.07v-7.38
					h-4.24c-0.28,0-0.51-0.1-0.7-0.29c-0.2-0.2-0.29-0.43-0.29-0.71s0.09-0.51,0.29-0.7c0.19-0.2,0.42-0.29,0.7-0.29h5.24
					c0.66,0,0.99,0.33,0.99,0.99v8.38c0,1.01-0.19,1.97-0.57,2.85c-0.38,0.89-0.91,1.65-1.55,2.31c-0.64,0.64-1.41,1.15-2.31,1.54
					c-0.89,0.38-1.84,0.58-2.84,0.58c-1.01,0-1.96-0.2-2.83-0.58s-1.64-0.9-2.31-1.54c-0.66-0.65-1.19-1.42-1.57-2.31
					c-0.38-0.89-0.57-1.84-0.57-2.85V362.49z"/>
				<path class="st0" d="M492.44,387.57c-0.49,0.1-0.85-0.09-1.1-0.58c-1.85-3.83-3.61-7.48-5.29-10.94
					c-0.7-1.47-1.41-2.96-2.14-4.47c-0.73-1.51-1.44-2.97-2.12-4.35c-0.68-1.37-1.3-2.64-1.86-3.8c-0.55-1.14-1-2.09-1.35-2.82
					v25.96c0,0.66-0.34,1-1,1c-0.66,0-0.99-0.34-0.99-1v-30.36c0-0.56,0.26-0.89,0.78-0.99c0.49-0.1,0.86,0.08,1.11,0.57
					c1.84,3.84,3.61,7.49,5.28,10.94c0.7,1.47,1.42,2.96,2.16,4.49c0.73,1.51,1.42,2.96,2.09,4.33c0.66,1.39,1.28,2.64,1.84,3.8
					c0.55,1.15,1.03,2.1,1.41,2.83v-25.97c0-0.66,0.33-0.99,0.99-0.99s1,0.33,1,0.99v30.36
					C493.23,387.13,492.97,387.47,492.44,387.57z"/>
				<path class="st0" d="M528.88,384.43c0.63-0.49,1.14-1.07,1.53-1.76c0.37-0.68,0.61-1.42,0.68-2.21c0.1-1.64-0.42-3.08-1.57-4.3
					l-8.32-8.59c-0.73-0.77-1.28-1.63-1.62-2.61c-0.35-0.98-0.49-1.99-0.42-3.04c0.07-1.01,0.35-1.98,0.86-2.9
					c0.5-0.93,1.15-1.7,1.96-2.33c0.84-0.63,1.77-1.06,2.81-1.28c1.03-0.23,2.04-0.24,3.05-0.03s1.95,0.62,2.81,1.21
					c0.85,0.59,1.54,1.34,2.06,2.25c0.28,0.59,0.16,1.06-0.36,1.41c-0.24,0.14-0.5,0.17-0.76,0.1c-0.27-0.07-0.47-0.22-0.61-0.47
					c-0.38-0.66-0.89-1.21-1.49-1.65c-0.62-0.43-1.3-0.73-2.07-0.91c-0.72-0.14-1.46-0.14-2.19,0.02c-0.73,0.15-1.4,0.48-1.99,0.97
					c-0.59,0.45-1.07,1.01-1.44,1.68c-0.36,0.66-0.58,1.36-0.65,2.1c-0.07,0.76,0.03,1.5,0.29,2.21c0.26,0.72,0.65,1.34,1.18,1.86
					l8.38,8.63c0.77,0.77,1.33,1.67,1.68,2.67c0.35,1.01,0.49,2.06,0.42,3.15c-0.07,1.08-0.37,2.1-0.9,3.04
					c-0.52,0.93-1.22,1.74-2.09,2.4c-0.87,0.66-1.84,1.12-2.89,1.36c-1.04,0.24-2.09,0.24-3.13,0c-1.08-0.21-2.06-0.63-2.94-1.26
					c-0.87-0.63-1.58-1.41-2.14-2.35c-0.14-0.24-0.17-0.5-0.1-0.76c0.07-0.27,0.24-0.47,0.52-0.61c0.24-0.14,0.49-0.17,0.73-0.1
					s0.45,0.23,0.63,0.48c0.84,1.43,2.06,2.32,3.66,2.67c0.8,0.17,1.6,0.16,2.37-0.02C527.55,385.26,528.25,384.92,528.88,384.43z"
					/>
				<path class="st0" d="M556.84,355.43c0.28,0,0.52,0.09,0.73,0.29c0.21,0.19,0.31,0.42,0.31,0.7s-0.1,0.52-0.31,0.71
					c-0.21,0.19-0.45,0.29-0.73,0.29h-5.76v29.15c0,0.28-0.1,0.51-0.31,0.71c-0.21,0.19-0.45,0.29-0.73,0.29
					c-0.28,0-0.52-0.1-0.71-0.29c-0.2-0.2-0.29-0.43-0.29-0.71v-29.15h-5.8c-0.28,0-0.52-0.1-0.71-0.29
					c-0.2-0.19-0.29-0.43-0.29-0.71s0.09-0.51,0.29-0.7c0.19-0.2,0.43-0.29,0.71-0.29H556.84z"/>
				<path class="st0" d="M570.39,382.37c0.28,0.64,0.65,1.2,1.12,1.67c0.48,0.48,1.04,0.85,1.68,1.13c0.64,0.28,1.34,0.42,2.06,0.42
					c0.73,0,1.42-0.14,2.05-0.42c0.63-0.28,1.18-0.65,1.64-1.13c0.48-0.47,0.85-1.03,1.13-1.67c0.28-0.65,0.42-1.34,0.42-2.07
					v-24.08c0-0.28,0.1-0.51,0.31-0.7c0.21-0.2,0.45-0.29,0.73-0.29c0.28,0,0.51,0.09,0.7,0.29c0.2,0.19,0.29,0.42,0.29,0.7v24.08
					c0,1.01-0.19,1.97-0.57,2.85c-0.38,0.89-0.91,1.65-1.57,2.31c-0.66,0.64-1.44,1.15-2.33,1.54c-0.9,0.38-1.83,0.58-2.81,0.58
					c-1,0-1.96-0.2-2.84-0.58c-0.9-0.38-1.67-0.9-2.33-1.54c-0.66-0.65-1.19-1.42-1.57-2.31c-0.38-0.89-0.58-1.84-0.58-2.85v-24.08
					c0-0.28,0.1-0.51,0.31-0.7c0.21-0.2,0.45-0.29,0.73-0.29c0.28,0,0.52,0.09,0.71,0.29c0.19,0.19,0.29,0.42,0.29,0.7v24.08
					C569.97,381.03,570.11,381.71,570.39,382.37z"/>
				<path class="st0" d="M602.06,355.43c1.01,0,1.97,0.19,2.85,0.57c0.9,0.38,1.67,0.91,2.31,1.55s1.17,1.41,1.55,2.31
					c0.37,0.89,0.57,1.84,0.57,2.84v17.38c0,1.01-0.2,1.97-0.57,2.85c-0.38,0.89-0.91,1.65-1.55,2.31
					c-0.64,0.64-1.41,1.15-2.31,1.54c-0.89,0.38-1.84,0.58-2.85,0.58h-6.28c-0.66,0-0.99-0.34-0.99-1v-29.94
					c0-0.66,0.33-0.99,0.99-0.99H602.06z M606.93,360.64c-0.28-0.64-0.65-1.2-1.12-1.68c-0.48-0.47-1.04-0.84-1.68-1.12
					c-0.65-0.28-1.34-0.42-2.07-0.42h-5.28v27.95h5.28c0.73,0,1.42-0.14,2.07-0.42c0.64-0.28,1.2-0.65,1.68-1.13
					c0.47-0.47,0.84-1.03,1.12-1.67c0.28-0.65,0.42-1.34,0.42-2.07V362.7C607.35,361.98,607.21,361.28,606.93,360.64z"/>
				<path class="st0" d="M622.36,387.57c-0.28,0-0.51-0.1-0.7-0.29c-0.2-0.2-0.29-0.43-0.29-0.71v-30.36c0-0.28,0.09-0.51,0.29-0.7
					c0.19-0.2,0.42-0.29,0.7-0.29s0.52,0.09,0.73,0.29c0.21,0.19,0.31,0.42,0.31,0.7v30.36c0,0.28-0.1,0.51-0.31,0.71
					C622.89,387.47,622.64,387.57,622.36,387.57z"/>
				<path class="st0" d="M635.97,359.65c0.38-0.9,0.91-1.67,1.55-2.31s1.41-1.17,2.31-1.55c0.89-0.38,1.84-0.57,2.85-0.57
					c1,0,1.96,0.19,2.84,0.57c0.9,0.38,1.67,0.91,2.31,1.55s1.17,1.41,1.55,2.31c0.38,0.89,0.57,1.84,0.57,2.84v17.8
					c0,1.01-0.19,1.97-0.57,2.85c-0.38,0.89-0.91,1.65-1.55,2.31c-0.64,0.64-1.41,1.15-2.31,1.54c-0.89,0.38-1.84,0.58-2.84,0.58
					c-1.01,0-1.97-0.2-2.85-0.58c-0.9-0.38-1.67-0.9-2.31-1.54c-0.64-0.65-1.17-1.42-1.55-2.31c-0.38-0.89-0.57-1.84-0.57-2.85
					v-17.8C635.4,361.49,635.59,360.53,635.97,359.65z M647.54,360.43c-0.28-0.64-0.65-1.2-1.12-1.68
					c-0.48-0.47-1.04-0.84-1.68-1.12c-0.64-0.28-1.34-0.42-2.06-0.42c-0.73,0-1.43,0.14-2.07,0.42c-0.64,0.28-1.2,0.65-1.68,1.12
					c-0.47,0.48-0.84,1.04-1.12,1.68c-0.28,0.64-0.42,1.34-0.42,2.06v17.8c0,0.73,0.14,1.42,0.42,2.07c0.28,0.64,0.65,1.2,1.12,1.67
					c0.48,0.48,1.04,0.85,1.68,1.13c0.64,0.28,1.34,0.42,2.07,0.42c0.72,0,1.42-0.14,2.06-0.42c0.64-0.28,1.2-0.65,1.68-1.13
					c0.47-0.47,0.84-1.03,1.12-1.67c0.28-0.65,0.42-1.34,0.42-2.07v-17.8C647.96,361.77,647.82,361.07,647.54,360.43z"/>
			</g>
		</g>
		<rect x="50.53" y="238.06" class="st1" width="721.22" height="157.93"/>
	</g>
</g>
</svg>
